<svg xmlns="http://www.w3.org/2000/svg" viewBox="0 0 5465 1024" width="5465" height="1024" fill="#111">
  <g transform="matrix(1 0 0 -1 0 960)">
    <path d="M1646 614Q1686 621 1726 638Q1766 656 1799.5 682.5Q1833 709 1857 744Q1882 780 1890 823H1903V614H2012V597H1903V43Q1903 28 1909.0 11.0Q1915 -6 1933 -3Q1957 0 1972.0 33.5Q1987 67 1992 90H2001Q1994 24 1944.5 -20.0Q1895 -64 1829 -64Q1828 -64 1826.5 -64.0Q1825 -64 1824 -64Q1770 -64 1707.0 -32.5Q1644 -1 1644 63V614ZM4136 -21Q4110 -21 4099.5 -7.5Q4089 6 4089 31V614H3732V597H3753Q3795 597 3811.0 579.5Q3827 562 3827 521V36Q3827 16 3821.0 -2.5Q3815 -21 3789 -21H3743Q3726 -20 3714.5 -8.0Q3703 4 3703 20Q3703 21 3703.0 21.0Q3703 21 3703 22V448Q3703 546 3645.5 593.5Q3588 641 3493 641Q3432 641 3379.5 619.0Q3327 597 3301 539Q3284 598 3232.5 619.5Q3181 641 3124 641Q3122 641 3119.0 641.5Q3116 642 3113 642Q3053 642 3005.0 610.5Q2957 579 2932 530L2931 529V614H2596V597H2613Q2651 597 2668.0 575.0Q2685 553 2685 517V29Q2685 4 2673.5 -9.5Q2662 -23 2635 -23H2595V-39H2987V-23H2972Q2948 -23 2938.5 -7.5Q2929 8 2929 29V462Q2929 497 2947.0 534.0Q2965 571 3006 571Q3030 569 3047.0 551.5Q3064 534 3064 510Q3064 509 3064.0 507.5Q3064 506 3063 505V29Q3063 10 3057.5 -6.5Q3052 -23 3029 -23H3007V-39H3371V-23H3359Q3334 -23 3323.0 -8.5Q3312 6 3312 29V485Q3312 520 3326.0 551.5Q3340 583 3382 583Q3423 583 3435.5 551.0Q3448 519 3448 485V20Q3448 19 3448.0 18.5Q3448 18 3448 17Q3448 1 3436.0 -11.0Q3424 -23 3407 -23Q3407 -23 3406.5 -23.0Q3406 -23 3405 -23H3389V-39H4172V-23ZM3950 901Q3951 901 3952.5 901.0Q3954 901 3956 901Q4009 901 4047.5 865.0Q4086 829 4090 777V776Q4090 718 4049.0 677.5Q4008 637 3950 637Q3892 637 3851.0 677.5Q3810 718 3810 776Q3814 829 3853.0 865.0Q3892 901 3945 901Q3946 901 3947.5 901.0Q3949 901 3950 901ZM4851 -21Q4824 -21 4804.5 -10.5Q4785 0 4785 31V925H4427V909H4452Q4487 909 4509.0 892.0Q4531 875 4531 837V539Q4517 584 4478.5 613.0Q4440 642 4391 643Q4326 643 4277 608Q4228 573 4195.0 520.5Q4162 468 4145 406Q4128 343 4128 288Q4128 233 4143 173Q4158 113 4188.0 62.5Q4218 12 4264 -21Q4310 -53 4373 -53Q4435 -53 4472.5 -12.5Q4510 28 4531 81V-37H4856V-21ZM4450 4Q4410 4 4405.0 54.5Q4400 105 4399 128L4394 221Q4394 243 4394.0 264.0Q4394 285 4394 305Q4394 325 4394.0 347.5Q4394 370 4394 391L4399 484Q4399 508 4405.5 558.5Q4412 609 4450 609Q4487 609 4503 569Q4520 530 4525.0 478.5Q4530 427 4529 377Q4527 328 4527 307Q4527 287 4529 237Q4531 188 4525.5 136.0Q4520 84 4503 44Q4487 4 4450 4ZM2626 299Q2626 306 2626.0 312.0Q2626 318 2626 324Q2626 326 2626.0 328.5Q2626 331 2626 334Q2626 396 2603 450Q2580 504 2540.0 544.5Q2500 585 2446 609Q2392 633 2331 634Q2331 634 2331.0 634.0Q2331 634 2331 634Q2260 634 2198 608Q2137 581 2090.5 535.0Q2044 489 2018 427Q1991 365 1991 294Q1991 293 1991.0 291.0Q1991 289 1991 287Q1991 286 1991.0 285.0Q1991 284 1991 283Q1991 212 2018 149Q2045 86 2092.0 39.5Q2139 -7 2201 -34Q2264 -61 2335 -61Q2338 -61 2340.0 -61.0Q2342 -61 2344 -61H2343Q2346 -61 2348.5 -61.0Q2351 -61 2354 -61Q2409 -61 2457 -41Q2506 -21 2542.5 14.0Q2579 49 2601 96Q2623 143 2626 197V198H2611Q2611 151 2593 109Q2575 67 2545.0 35.0Q2515 3 2474 -17Q2434 -36 2387 -40H2386Q2337 -40 2310 -13Q2283 13 2270.0 51.5Q2257 90 2255 134Q2252 178 2252 213Q2252 234 2252.0 255.5Q2252 277 2252 299ZM2331 619Q2382 619 2388.5 558.0Q2395 497 2395 465V315H2252Q2252 339 2251 390Q2250 440 2255.5 491.0Q2261 542 2278 580Q2295 619 2331 619ZM1479 639Q1427 637 1387.0 605.0Q1347 573 1334 525V524V614H996V597H1014Q1048 597 1064.0 580.0Q1080 563 1080 528V29Q1080 14 1073.0 -1.5Q1066 -17 1048 -17Q1029 -15 1014.5 -2.0Q1000 11 996 29L692 957H459L229 215Q217 180 200 139Q182 97 156.0 61.5Q130 26 96 2Q61 -23 16 -23H0V-39H406V-23H390Q390 -23 389.5 -23.0Q389 -23 389 -23Q325 -23 280.5 22.0Q236 67 236 130Q236 133 236.0 135.5Q236 138 236 141V140Q236 142 236.0 143.0Q236 144 236 146Q236 164 239.0 182.0Q242 200 247 217V215L297 374H562L655 71Q658 62 659.5 52.0Q661 42 662 32V31Q662 -3 628.0 -11.0Q594 -19 569 -19H540V-35H1421V-19H1396Q1395 -19 1394.0 -19.0Q1393 -19 1392 -19Q1368 -19 1350.5 -1.5Q1333 16 1333 40Q1333 42 1333.0 44.0Q1333 46 1333 48V47V421Q1333 498 1371.5 560.0Q1410 622 1470 622Q1473 622 1475.5 622.5Q1478 623 1481 623Q1509 623 1531.5 607.5Q1554 592 1565 568H1566Q1549 580 1528.5 587.5Q1508 595 1485 596Q1485 596 1484.5 596.0Q1484 596 1483 596Q1435 596 1401.0 562.0Q1367 528 1367 480Q1367 478 1367.0 477.0Q1367 476 1367 474V475Q1367 474 1367.0 473.5Q1367 473 1367 473Q1367 424 1401.5 389.5Q1436 355 1485 355Q1486 355 1487.0 355.0Q1488 355 1490 355H1489Q1543 355 1580.5 393.0Q1618 431 1618 484Q1618 487 1618.0 489.5Q1618 492 1618 495Q1618 495 1618.0 495.5Q1618 496 1618 497Q1618 555 1577.5 596.5Q1537 638 1479 639ZM302 390 427 796 556 390ZM5459 299V324Q5459 326 5459.0 328.5Q5459 331 5459 334Q5459 396 5436 450Q5413 505 5372.5 545.5Q5332 586 5278 610Q5224 634 5162 634Q5092 634 5031 608Q4969 581 4923.0 535.0Q4877 489 4851 427Q4824 366 4824 296Q4824 294 4824.0 291.5Q4824 289 4824 287Q4824 286 4824.0 284.5Q4824 283 4824 282Q4824 211 4851 148Q4878 86 4924.5 39.5Q4971 -7 5034 -34Q5096 -61 5167 -61Q5169 -61 5171.0 -61.0Q5173 -61 5175 -61Q5177 -61 5179.5 -61.0Q5182 -61 5184 -61Q5239 -61 5288 -41Q5336 -21 5373.0 14.0Q5410 49 5433 96Q5456 143 5459 197V198H5443Q5443 154 5425 111Q5408 69 5377.5 35.0Q5347 1 5306 -19Q5266 -40 5219 -40Q5171 -40 5143 -13Q5116 13 5102.5 51.5Q5089 90 5086 134Q5084 178 5084 213Q5084 234 5084.0 255.5Q5084 277 5084 299ZM5166 619Q5216 619 5222.5 558.0Q5229 497 5229 465V315H5084Q5084 339 5083 390Q5082 440 5088.0 491.0Q5094 542 5112 580Q5129 619 5166 619ZM5452 871Q5452 839 5429.5 817.0Q5407 795 5376 795Q5344 795 5322.0 817.0Q5300 839 5300 871Q5300 902 5322.0 924.5Q5344 947 5376 947Q5407 947 5429.5 924.5Q5452 902 5452 871ZM5376 960Q5339 960 5312.5 934.0Q5286 908 5286 871Q5286 834 5312.5 807.5Q5339 781 5376 781Q5413 781 5439.0 807.5Q5465 834 5465 871Q5465 908 5439.0 934.0Q5413 960 5376 960ZM5374 921Q5394 921 5404.0 914.5Q5414 908 5414 893Q5414 893 5414.0 892.5Q5414 892 5414 892Q5414 883 5408.0 876.0Q5402 869 5394 867L5417 821H5399L5378 864H5356V820H5342V921ZM5358 874H5375Q5387 874 5393.0 878.0Q5399 882 5399 891Q5399 899 5393.5 903.0Q5388 907 5375 907H5359Z"/>
  </g>
</svg>