<svg xmlns="http://www.w3.org/2000/svg" viewBox="0 0 124.8 36.6" fill="#111" role="img" aria-label="BEGA">
  <path d="M21.4,17.1s4.2-2.1,4.6-6c1.1-9.6-8.5-9.7-8.5-9.7H0V35.9H16.4s11.2.5,10.9-10.6C27.2,19.3,21.4,17.1,21.4,17.1ZM6.8,7.1h7.5s5.1-.4,5.2,3.9c.1,3.8-5.2,3.9-5.2,3.9H6.8ZM14.3,30H6.8V20.4h7.5s5.8-.3,5.9,4.8S14.3,30,14.3,30Z"/>
  <polygon points="32.3 35.8 32.3 1.4 57.8 1.4 57.8 7.1 39.5 7.1 39.5 14.3 55.6 14.3 55.6 20 39.5 20 39.5 30.1 57.8 30.1 57.8 35.8 32.3 35.8"/>
  <path d="M76.3,22.8V17.2H90.9V35.8H85.3L85,31.2a11.11,11.11,0,0,1-9.5,5.4c-9,0-16.4-6.9-16.3-18.3C59.2,8.3,65.3,0,75.5,0c7.1,0,13.3,3.5,15.4,12.1h-7c-1.6-4.8-4.5-6.2-8-6.2-6,0-9.5,5.5-9.5,12.4s3.3,12.4,9.5,12.4c4.1,0,7.8-2.9,8.6-7.9Z"/>
  <path d="M112.6,1.4h-7.9L92.5,35.8h7.6l2.5-7.5h12l2.7,7.5h7.5Zm-8.3,21.5s4.4-14.2,4.3-14.3,4.3,14.3,4.3,14.3Z"/>
</svg>
