<?xml version="1.0" encoding="UTF-8" standalone="no"?>
<!DOCTYPE svg PUBLIC "-//W3C//DTD SVG 1.1//EN" "http://www.w3.org/Graphics/SVG/1.1/DTD/svg11.dtd">
<svg width="68px" height="29px" version="1.1" xmlns="http://www.w3.org/2000/svg" xmlns:xlink="http://www.w3.org/1999/xlink" xml:space="preserve" xmlns:serif="http://www.serif.com/" fill="#000" style="fill-rule:evenodd;clip-rule:evenodd;stroke-linejoin:round;stroke-miterlimit:1.41421;"><path d="M16.02,14.764c0,5.596 -2.643,9.354 -9.475,9.369l-0.036,0l0.036,0l0,-18.739l-0.036,0l0.036,0c6.303,0.012 9.475,3.21 9.475,9.37m18.646,14.186l6.974,0l0,-14.192l-5.571,0l0,9.375l0.036,0l-0.036,0c-6.832,-0.015 -9.475,-3.773 -9.475,-9.369c0,-6.172 3.183,-9.37 9.511,-9.37l-0.036,0l5.571,-0.003l0,-4.813l-7.012,0c-6.852,0 -11.823,4.22 -13.322,10.275c-1.497,-6.055 -6.468,-10.275 -13.319,-10.275l-7.013,0l0,28.372l6.974,0c6.774,0 11.842,-4.269 13.358,-10.291c1.518,6.022 6.586,10.291 13.36,10.291m20.433,-9.821l-5.04,0l0,-9.117c0.894,1.969 1.605,3.163 1.605,3.163l3.435,5.954Zm12.076,9.821l-16.371,-28.372l-0.745,0l-3.061,0l-2.521,0l0,28.372l5.582,0l0,-5.135l7.744,0l2.962,5.135l6.41,0Zm-10.711,-28.372l10.711,18.551l0,-18.551l-10.711,0Z" style="fill-rule:nonzero;"/></svg>