<?xml version="1.0" encoding="UTF-8"?>
<svg width="74px" height="23px" viewBox="0 0 74 23" version="1.1" xmlns="http://www.w3.org/2000/svg" xmlns:xlink="http://www.w3.org/1999/xlink">
    <title>logo_new</title>
    <g id="Page-1" stroke="none" stroke-width="1" fill="none" fill-rule="evenodd">
        <g id="logo_new" fill="#000000" fill-rule="nonzero">
            <path d="M0,0.534 L0,21.978 L14.673,21.978 L14.673,18.467 L4.515,18.467 L4.515,12.353 L13.67,12.353 L13.67,9.03 L4.483,9.03 L4.483,3.95 L14.265,3.95 L14.265,0.534 L0,0.534 Z M52.516,6.02 C52.516,2.069 48.503,-0.031 45.024,0 C35.712,0.062 36.338,9.625 36.182,11.005 C36.057,19.752 39.944,22.417 45.337,22.542 C50.761,22.667 52.642,18.749 52.517,16.804 L50.667,16.804 C50.698,18.372 49.287,20.819 45.524,20.975 C43.047,21.069 37.968,19.971 38.001,11.443 C38.001,7.179 39.004,1.598 45.212,1.755 C48.661,1.818 50.385,3.605 50.385,6.019 L52.516,6.02 L52.516,6.02 Z M20.975,12.229 C20.975,12.229 24.832,12.229 26.243,12.229 C26.243,12.229 28.908,12.229 29.379,16.147 C29.598,17.088 29.943,19.942 30.602,21.979 C30.602,21.979 34.176,22.01 33.894,22.01 C33.643,22.01 32.859,18.499 32.514,15.865 C32.326,14.486 31.574,11.538 29.567,11.006 C29.567,11.006 33.047,10.159 33.141,6.051 C33.204,4.202 31.856,0.533 28.501,0.533 L17.934,0.533 L17.934,22.01 L20.975,22.01 L20.975,12.229 Z M20.975,9.625 L20.975,2.85398811 C20.975,2.85398811 26.996,2.85398811 27.622,2.85398811 C27.622,2.85398811 30.13,2.823 30.288,5.927 C30.445,6.993 29.504,9.626 26.714,9.626 C25.239,9.625 20.975,9.625 20.975,9.625 Z M64.18,0.157 C56.498,0.188 54.555,5.425 54.334,9.877 C53.99,16.43 56.718,22.48 64.18,22.48 C71.578,22.48 74.368,16.428 73.961,9.876 C73.711,5.55 71.484,0.157 64.18,0.157 Z M72.551,11.006 C72.551,16.837 70.136,21.227 64.18,21.227 C58.16,21.227 55.557,16.774 55.682,10.975 C55.713,9.251 55.37,1.318 64.18,1.381 C72.456,1.443 72.551,9.281 72.551,11.006 Z" id="path5430"></path>
        </g>
    </g>
</svg>