<svg xmlns="http://www.w3.org/2000/svg" viewBox="0 0 162 39" fill="#111">
  <path fill-rule="evenodd" clip-rule="evenodd" d="M5.2,0c2.7,0,4.9,2.2,4.9,4.9c0,2.7-2.2,4.9-4.9,4.9
        c-2.7,0-4.9-2.2-4.9-4.9C0.3,2.2,2.5,0,5.2,0L5.2,0L5.2,0z M143,38.7h7.9v-15l-0.3-1.5l-0.5-1.2l-0.7-1.3l-1.1-1.6l-0.8-0.8
        l-1.4-1.1l-1.2-0.6l-1.3-0.5l-2-0.4h-15.1v24h8V21.5h5.6l1,0.3l0.8,0.7l0.4,0.7l0.5,1L143,38.7L143,38.7L143,38.7z M39.8,13.1
        l6.5-3.9l-0.8-1.2l-1.6-1.6l-2.2-1.9l-2.8-1.8l-2.2-0.9L34,1l-2.1-0.3h-2.2L26.4,1l-2.8,0.9L21,3.1l-2.5,1.5l-1.8,1.7l-1.6,1.6
        l-1.3,1.9l-1.1,2l-1.1,3l-0.6,2l-0.2,2.1l0.2,2.5l0.3,2.5l0.9,2.8l1.2,2.5l1.2,2l1.5,1.7l1.8,1.7l2.1,1.5l2,1.1l2,0.8l2.4,0.7
        l2.8,0.3h18.4v-24h-7.9v16.3H29l-1.7-0.4l-1.5-0.6L24,29.3l-1.5-1L21.4,27l-1.1-1.7l-0.8-1.7l-0.4-2l-0.1-2.2l0.2-2l0.8-2.2l1.1-2
        l1.5-1.7l1.9-1.3l2-0.9l2.2-0.6l2.2-0.1l2.5,0.3l2,0.8l1.9,1.1l1.3,1.1L39.8,13.1L39.8,13.1L39.8,13.1z M49.8,14.9v14.2l0.1,1.9
        l0.4,1.6l0.7,1.4l1.1,1.5l1.6,1.5l1.6,1l1.7,0.7l2.1,0.2h15.3V14.9h-8.1v17.2h-6l-0.9-0.3l-0.7-0.5l-0.7-0.9L58,29.3V14.9H49.8
        L49.8,14.9L49.8,14.9z M76,14.9h40.8l-10.1,17.5h8.7v6.4H74.9L85,21.7h-8.9L76,14.9L76,14.9L76,14.9z M88.2,32.3l6-10.4h9.8l-6,10.5
        L88.2,32.3L88.2,32.3L88.2,32.3z M156.8,0.2c2.7,0,4.9,2.2,4.9,4.9c0,2.7-2.2,4.9-4.9,4.9c-2.7,0-4.9-2.2-4.9-4.9
        C151.9,2.4,154.1,0.2,156.8,0.2L156.8,0.2L156.8,0.2z M152.6,14.6h8.1v24.1h-8.1V14.6L152.6,14.6L152.6,14.6z M120.5,0.6
        c2.7,0,4.9,2.2,4.9,4.9c0,2.7-2.2,4.9-4.9,4.9c-2.7,0-4.9-2.2-4.9-4.9C115.7,2.8,117.9,0.6,120.5,0.6L120.5,0.6L120.5,0.6z
            M116.8,15h7.9v23.9h-7.9V15L116.8,15L116.8,15z M1.3,14.4h8.1v24.4H1.3V14.4L1.3,14.4L1.3,14.4z"/>
</svg>