<?xml version="1.0" encoding="UTF-8" standalone="no"?>
<svg width="90px" height="105px" viewBox="0 0 90 105" version="1.1" xmlns="http://www.w3.org/2000/svg" xmlns:xlink="http://www.w3.org/1999/xlink">
    <!-- Generator: Sketch 47.1 (45422) - http://www.bohemiancoding.com/sketch -->
    <title>Group</title>
    <desc>Created with Sketch.</desc>
    <defs></defs>
    <g id="Current" stroke="none" stroke-width="1" fill="none" fill-rule="evenodd" opacity="0.900000036">
        <g id="UI" transform="translate(-146.000000, -4860.000000)" fill="#000000">
            <g id="Group" transform="translate(146.000000, 4860.000000)">
                <path d="M0.001125,88.9895323 L89.026875,88.9895323 L89.026875,0.000338709677 L0.001125,0.000338709677 L0.001125,88.9895323 Z M1.281375,87.7080806 L87.74325,87.7080806 L87.74325,1.28179032 L1.281375,1.28179032 L1.281375,87.7080806 Z" id="Fill-22"></path>
                <polygon id="Fill-1" points="6.5359125 39.4167742 6.5359125 80.9425806 24.3334125 80.9425806 24.3334125 76.2062903 11.7165375 76.2062903 11.7165375 39.4167742"></polygon>
                <polygon id="Fill-2" points="65.8641375 39.4167742 65.8641375 80.9425806 83.6627625 80.9425806 83.6627625 76.2062903 71.0425125 76.2062903 71.0425125 39.4167742"></polygon>
                <polygon id="Fill-3" points="0 94.2161613 0 101.587613 3.159 101.587613 3.159 100.747613 0.919125 100.747613 0.919125 94.2161613"></polygon>
                <path d="M11.70765,97.0126613 L11.70765,99.5428226 C11.70765,100.277823 11.522025,100.924758 10.6524,100.924758 C9.780525,100.924758 9.5949,100.277823 9.5949,99.5428226 L9.5949,97.0126613 L8.7129,97.0126613 L8.7129,99.6421774 C8.7129,100.893145 9.3024,101.746694 10.6524,101.746694 C12.001275,101.746694 12.58965,100.893145 12.58965,99.6421774 L12.58965,97.0126613 L11.70765,97.0126613 Z" id="Fill-4"></path>
                <path d="M18.4964625,99.3391452 C18.4964625,100.708661 19.6023375,101.742855 20.9512125,101.742855 C21.4124625,101.742855 21.8118375,101.657048 22.2134625,101.441403 L22.2134625,100.319145 C21.8804625,100.688339 21.4698375,100.923177 20.9613375,100.923177 C20.0320875,100.923177 19.3762125,100.238984 19.3762125,99.299629 C19.3762125,98.459629 20.0422125,97.6964032 20.9028375,97.6964032 C21.4315875,97.6964032 21.8624625,97.9109194 22.2134625,98.3117258 L22.2134625,97.1781774 C21.8624625,96.9726935 21.4124625,96.8744677 20.9995875,96.8744677 C19.5910875,96.8744677 18.4964625,97.9199516 18.4964625,99.3391452" id="Fill-6"></path>
                <path d="M30.1278375,97.6397258 C30.8320875,97.6397258 31.2820875,98.0969839 31.3900875,98.7823065 L28.8262125,98.7823065 C28.9342125,98.1263387 29.4438375,97.6397258 30.1278375,97.6397258 M27.8969625,99.3389194 C27.8969625,100.688113 28.7485875,101.744887 30.1458375,101.744887 C31.0368375,101.744887 31.8400875,101.285371 32.2698375,100.495048 L31.5250875,100.070532 C31.1932125,100.620371 30.8320875,100.961339 30.1582125,100.961339 C29.3155875,100.961339 28.7879625,100.228597 28.7778375,99.4473065 L32.2698375,99.4473065 L32.2698375,99.3106935 C32.2698375,97.9513387 31.5835875,96.8742419 30.1278375,96.8742419 C28.6507125,96.8742419 27.8969625,97.9321452 27.8969625,99.3389194" id="Fill-8"></path>
                <path d="M38.8809,99.5665323 C38.8809,98.8608871 39.714525,98.3595968 40.220775,98.0095968 L40.30965,97.9508871 L41.942025,99.9447581 C41.483025,100.405403 40.93515,100.921371 40.25115,100.921371 C39.5469,100.921371 38.8809,100.269919 38.8809,99.5665323 L38.8809,99.5665323 Z M40.261275,96.4842742 C40.0464,96.2110484 39.8214,95.9378226 39.8214,95.5652419 C39.8214,95.0933065 40.20165,94.7839516 40.64265,94.7839516 C41.132025,94.7839516 41.50215,95.0673387 41.50215,95.5855645 C41.50215,96.1207258 40.99365,96.4255645 40.6224,96.7179839 L40.504275,96.7958871 L40.261275,96.4842742 Z M38.960775,95.6725 C38.960775,96.2979839 39.352275,96.8433065 39.7719,97.2870161 L39.311775,97.6178226 C38.6064,98.1270161 38.0214,98.6339516 38.0214,99.5744355 C38.0214,100.847984 39.0474,101.745565 40.2804,101.745565 C41.150025,101.745565 41.93415,101.246532 42.491025,100.591694 L43.294275,101.5875 L44.428275,101.5875 L43.10865,99.9549194 L44.007525,98.9004032 L43.41915,98.2941129 L42.560775,99.2910484 L41.024025,97.4326613 C41.64165,96.9810484 42.365025,96.4255645 42.365025,95.5934677 C42.365025,94.6258871 41.561775,94.0568548 40.6629,94.0568548 C39.69315,94.0568548 38.960775,94.6541129 38.960775,95.6725 L38.960775,95.6725 Z" id="Fill-10"></path>
                <polygon id="Fill-13" points="50.0630625 94.2162742 50.0630625 101.587726 53.2220625 101.587726 53.2220625 100.747726 50.9810625 100.747726 50.9810625 94.2162742"></polygon>
                <path d="M59.011875,101.587274 L59.891625,101.587274 L59.891625,97.0135645 L59.011875,97.0135645 L59.011875,101.587274 Z M58.845375,94.9192097 C58.845375,95.2522742 59.11875,95.5164677 59.45175,95.5164677 C59.78475,95.5164677 60.058125,95.2522742 60.058125,94.9192097 C60.058125,94.5759839 59.78475,94.3027581 59.45175,94.3027581 C59.11875,94.3027581 58.845375,94.5759839 58.845375,94.9192097 L58.845375,94.9192097 Z" id="Fill-14"></path>
                <path d="M66.9052125,99.3022258 C66.9052125,98.4486774 67.4452125,97.6594839 68.3530875,97.6594839 C69.3025875,97.6594839 69.8414625,98.4102903 69.8414625,99.3022258 C69.8414625,100.199806 69.3127125,100.961903 68.3530875,100.961903 C67.4238375,100.961903 66.9052125,100.16029 66.9052125,99.3022258 M66.0254625,99.2717419 C66.0254625,100.581419 66.8095875,101.745452 68.2180875,101.745452 C68.8627125,101.745452 69.4195875,101.393194 69.7739625,100.874968 L69.7919625,100.874968 L69.7919625,101.745452 C69.7919625,102.685935 69.5658375,103.426581 68.4813375,103.426581 C67.6780875,103.426581 67.1122125,102.958032 67.1122125,102.136097 L66.2313375,102.136097 C66.2515875,103.426581 67.1684625,104.207871 68.4419625,104.207871 C70.2217125,104.207871 70.6717125,103.075452 70.6717125,101.501581 L70.6717125,97.0114194 L69.7919625,97.0114194 L69.7919625,97.7949677 L69.7739625,97.7949677 C69.4105875,97.2281935 68.8627125,96.8748065 68.1764625,96.8748065 C66.8568375,96.8748065 66.0254625,98.0173871 66.0254625,99.2717419" id="Fill-16"></path>
                <path d="M76.90365,93.1005645 L76.90365,101.5875 L77.782275,101.5875 L77.782275,99.486371 C77.782275,98.6531452 77.782275,97.6573387 78.9174,97.6573387 C79.8174,97.6573387 79.924275,98.1845968 79.924275,98.9658871 L79.924275,101.5875 L80.806275,101.5875 L80.806275,98.8597581 C80.806275,97.7465323 80.473275,96.8749194 79.181775,96.8749194 C78.62715,96.8749194 78.07815,97.1391129 77.802525,97.6279839 L77.782275,97.6279839 L77.782275,93.1005645 L76.90365,93.1005645 Z" id="Fill-17"></path>
                <polygon id="Fill-19" points="87.23295 95.2627742 87.23295 97.0116452 86.7537 97.0116452 86.7537 97.8347097 87.23295 97.8347097 87.23295 101.587613 88.1127 101.587613 88.1127 97.8347097 88.973325 97.8347097 88.973325 97.0116452 88.1127 97.0116452 88.1127 95.2627742"></polygon>
                <path d="M39.5848125,60.4534677 L48.7861875,71.6895968 C46.1975625,74.2784677 43.1116875,77.1981452 39.2540625,77.1981452 C35.2873125,77.1981452 31.5410625,73.5073387 31.5410625,69.5410484 C31.5410625,65.5747581 36.2233125,62.7679839 39.0898125,60.7842742 L39.5848125,60.4534677 Z M40.6873125,53.9525 L39.3103125,52.1912097 C38.0964375,50.6512097 36.8285625,49.1078226 36.8285625,47.0157258 C36.8285625,44.3715323 38.9795625,42.6102419 41.4579375,42.6102419 C44.2130625,42.6102419 46.3066875,44.2055645 46.3066875,47.1252419 C46.3066875,50.1555645 43.4424375,51.8626613 41.3488125,53.5133065 L40.6873125,53.9525 Z M56.3900625,80.9431452 L62.7811875,80.9431452 L55.3426875,71.7449194 L60.4108125,65.7983065 L57.1066875,62.3818548 L52.2590625,67.9987903 L43.6078125,57.5360484 C47.0773125,55.003629 51.1554375,51.8626613 51.1554375,47.1828226 C51.1554375,41.7284677 46.6351875,38.5344355 41.5693125,38.5344355 C36.1141875,38.5344355 31.9809375,41.8955645 31.9809375,47.6231452 C31.9809375,51.1457258 34.1859375,54.2302419 36.5540625,56.7095968 L33.9654375,58.5815323 C29.9998125,61.4447581 26.6911875,64.3079839 26.6911875,69.5952419 C26.6911875,76.7555645 32.4770625,81.8249194 39.4194375,81.8249194 C44.3233125,81.8249194 48.7310625,79.013629 51.8709375,75.3250806 L56.3900625,80.9431452 Z" id="Fill-20"></path>
            </g>
        </g>
    </g>
</svg>