<?xml version="1.0" encoding="utf-8"?>
<!-- Generator: Adobe Illustrator 26.0.1, SVG Export Plug-In . SVG Version: 6.00 Build 0)  -->
<svg version="1.1" id="Livello_1" xmlns="http://www.w3.org/2000/svg" xmlns:xlink="http://www.w3.org/1999/xlink" x="0px" y="0px"
	 viewBox="0 0 182 28.8" style="enable-background:new 0 0 182 28.8;" xml:space="preserve">
<style type="text/css">
	.st0{fill:#FFFFFF;}
</style>
<g>
	<polygon class="st0" points="31,0.5 20.1,28.3 25.4,28.3 34.1,5.4 42.7,28.3 48,28.3 37.1,0.5 	"/>
	<polygon class="st0" points="111.3,0.5 111.3,4.7 111.3,4.8 131,4.8 131,0.5 	"/>
	<polygon class="st0" points="177.7,0.5 177.6,0.5 177.6,28.3 181.9,28.3 181.9,0.5 	"/>
	<path class="st0" d="M92.6,12.7v4.2l0,0.1h9.3c-1.1,4.2-4.9,7.2-9.4,7.2c-5.4,0-9.8-4.4-9.8-9.8c0-5.4,4.4-9.8,9.8-9.8
		c3,0,5.6,1.3,7.4,3.4l4-2.5C101.1,2.2,97,0,92.4,0C84.5,0,78,6.4,78,14.4c0,8,6.4,14.4,14.4,14.4c8,0,14.4-6.4,14.4-14.4
		c0-0.6,0-1.2-0.1-1.7H92.6z"/>
	<polygon class="st0" points="111.4,12.7 111.3,12.7 111.3,28.2 111.3,28.3 131,28.3 131,24 115.6,24 115.6,16.9 131,16.9 131,12.7 
			"/>
	<path class="st0" d="M69.9,16.3c0.8-0.4,1.5-0.9,2.1-1.6c0.6-0.7,1.1-1.5,1.5-2.4c0.4-0.9,0.6-1.8,0.6-3.1c0-1.3-0.2-2.5-0.6-3.5
		c-0.4-1.1-1-2-1.8-2.8c-0.8-0.8-1.7-1.4-2.9-1.8c-1.1-0.4-2.4-0.6-3.7-0.6H52.7v4.3l11.5,0c1.4,0,2.5,0.4,3.4,1.2
		C68.6,6.8,69,7.6,69,9c0,1.3-0.4,2.4-1.3,3.2c-0.9,0.8-2,1.2-3.4,1.2H52.7v14.9h4.9V17.7h4.8l6.2,10.6h5.6l-6.8-11.1
		C68.3,17,69.1,16.7,69.9,16.3"/>
	<rect x="143.1" y="12.7" class="st0" width="4.9" height="15.6"/>
	<rect x="134.7" y="0.5" class="st0" width="39.1" height="4.3"/>
	<rect x="160.5" y="12.7" class="st0" width="4.9" height="15.6"/>
	<rect y="0.5" class="st0" width="21.7" height="4.3"/>
	<rect x="8.4" y="12.7" class="st0" width="4.9" height="15.6"/>
</g>
</svg>
